<?xml version="1.0" standalone="no"?><!DOCTYPE svg PUBLIC "-//W3C//DTD SVG 1.1//EN" "http://www.w3.org/Graphics/SVG/1.1/DTD/svg11.dtd"><svg class="icon" width="128px" height="128.00px" viewBox="0 0 1024 1024" version="1.1" xmlns="http://www.w3.org/2000/svg"><path fill="#000000" d="M711.02158 451.71513c1.900145 0.316691 16.885955-3.027564 17.519337-1.900145 0.950072 1.418775 7.638583 49.530446 5.890449 49.847136q-1.748133 0.316691-14.175081 3.179576c-0.950072-6.523831-9.082693-46.996919-9.247373-51.126567z m23.891156-4.623686l6.523831 51.772616a756.637727 756.637727 0 0 0 18.165386-1.266763q-1.912813-19.596828-5.257068-50.505853c-6.371819-1.266763-13.06033-1.266763-19.432149 0z m-12.908318 71.838147q29.464915-7.486571 40.143729-3.825625c5.409079 19.596828 15.289833 129.501213 16.239906 133.96022-6.68851 0.798061-28.666854 2.698206-30.414987 3.179576-1.431443-8.284632-25.968648-128.069771-25.968648-133.314171z m109.106324-65.93503c1.760801 0.468702 17.354657-1.596122 17.519337-0.48137 0.329358 3.825625 1.912813 50.011816 0.164679 50.163827l-14.175082 1.279431c-0.316691-6.371819-3.825625-46.66756-3.508934-50.961888z m24.055835-1.279431l1.266764 51.126567c3.356923 0 16.721276 0.798061 18.165386 0.633382q-0.316691-19.584161 0-50.480518a88.002047 88.002047 0 0 0-19.43215-1.279431z m-20.546901 68.658571q30.098296-3.990304 40.295741 0.785394c2.229503 22.928416 1.912813 129.817904 2.229504 134.276911-6.840522 0-28.666854 0.316691-30.414987 0.633381-0.329358-8.284632-12.591627-130.451286-12.110258-135.708353z m-69.925334-131.414026c17.354657 88.546756 30.579666 239.874301 31.061036 249.590376q13.693711 0.316691 29.148224 1.266763c-9.082693-95.399945-20.23021-247.829575-20.065531-252.769951q-3.825625-4.306995-40.143729 1.900145z m-38.230917 209.446646c-3.344255-24.841229-92.220369-53.03938-142.232185-43.956687q-6.20714-54.787513-8.601323-107.826893c-2.064824-45.552809-0.316691-89.838854 0.164679-97.160746-3.344255-2.394183-39.345669 14.808463-58.777817 21.978344q23.257774 98.427509 40.143729 302.629755 26.91872 2.862885 73.104911-6.055129c46.18619-8.918014 100.83436-36.799474 96.198006-69.608644z m-108.624954 44.767416l-7.803262-56.231624c1.912813-0.950072 49.859804 16.885955 54.952192 20.065531q-0.798061 3.508934-47.14893 36.166093zM340.860672 451.71513c1.900145 0.316691 16.873287-3.027564 17.519337-1.900145 0.950072 1.418775 7.638583 49.530446 5.890449 49.847136q-1.748133 0.316691-14.187749 3.179576c-0.950072-6.523831-9.070025-46.996919-9.222037-51.126567z m23.891156-4.623686l6.523831 51.772616a756.637727 756.637727 0 0 0 18.165386-1.266763q-2.077492-19.596828-5.257067-50.505853c-6.371819-1.266763-13.06033-1.266763-19.43215 0z m-12.908318 71.838147q29.464915-7.486571 40.14373-3.825625c5.409079 19.596828 15.289833 129.501213 16.239905 133.96022-6.68851 0.798061-28.666854 2.698206-30.414987 3.179576-1.431443-8.284632-25.968648-128.069771-25.968648-133.314171z m109.106324-65.93503c1.748133 0.468702 17.354657-1.596122 17.519337-0.48137 0.316691 3.825625 1.912813 50.011816 0.164679 50.163827l-14.187749 1.279431c-0.304023-6.371819-3.648278-46.66756-3.496267-50.961888z m24.055836-1.279431l1.266763 51.126567c3.344255 0 16.721276 0.798061 18.165386 0.633382q-0.316691-19.584161 0-50.480518a98.845541 98.845541 0 0 0-19.432149-1.279431z m-20.546901 68.658571q30.098296-3.990304 40.283073 0.785394c2.242171 22.928416 1.92548 129.817904 2.242171 134.276911-6.840522 0-28.666854 0.316691-30.427655 0.633381-0.152012-8.284632-12.57896-130.451286-12.097589-135.708353z m-69.925335-131.414026c17.354657 88.546756 30.579666 239.874301 31.061036 249.590376q13.693711 0.316691 29.135556 1.266763c-9.070025-95.399945-20.217542-247.829575-20.06553-252.934631q-3.812958-4.129648-40.131062 2.077492z m-38.230917 209.446646c-3.344255-24.841229-92.220369-53.03938-142.232185-43.956687q-6.20714-54.787513-8.601323-107.826893c-2.064824-45.552809-0.316691-89.838854 0.16468-97.160746-3.344255-2.229503-39.345669 14.808463-58.777818 21.978344q23.257774 98.427509 40.131062 302.629755 26.91872 2.862885 73.117578-6.055129c46.18619-8.918014 100.821692-36.799474 96.198006-69.608644z m-108.624954 44.767416l-7.803262-56.231624c1.900145-0.950072 49.847136 16.885955 54.952192 20.065531q-0.798061 3.508934-47.14893 36.166093z" /></svg>