<?xml version="1.0" standalone="no"?><!DOCTYPE svg PUBLIC "-//W3C//DTD SVG 1.1//EN" "http://www.w3.org/Graphics/SVG/1.1/DTD/svg11.dtd"><svg class="icon" width="128px" height="118.83px" viewBox="0 0 1103 1024" version="1.1" xmlns="http://www.w3.org/2000/svg"><path fill="#000000" d="M846.81999042 268.27248292c-18.46014229-0.76532221-36.63399577-4.62799711-54.01772827-11.48095034-58.53526723-23.07461479-98.56079835-76.35858188-104.45907053-139.05634285a164.83719767 164.83719767 0 0 1-0.59399792-9.18949374v-4.44991231c0-1.11022308-0.05748407-2.20692155-0.16230789-3.29009361-0.67515097-18.06226555-15.51495134-32.50982533-33.74628527-32.52898432h-0.03606918c-18.65739142 0-33.79249886 15.11594665-33.81278759 33.77897244-0.00225411 2.49884833 0.05071998 5.0089672 0.1296207 7.52134195V694.89137098a33.8871783 33.8871783 0 0 0-0.30883345 6.94537683c1.39425964 24.05860099-2.42220351 47.73172194-11.34456914 70.36337436-16.26223895 41.25523054-47.6167538 73.70757003-88.28813077 91.37872293-40.67024901 17.67115113-85.78928242 18.4466177-127.04338499 2.18437875-85.16259732-33.57270871-127.13581037-130.17117258-93.56422784-215.33489605 30.2499279-76.73391581 113.39270846-119.94584468 193.38403072-100.52651488 18.14792859 4.4093349 36.4322384-6.73122281 40.83819126-24.87914963 4.40595285-18.14792859-6.73347691-36.43111225-24.88027754-40.83819304-54.34121428-13.1941896-111.78541919-6.32320171-161.74773168 19.34944907-50.44359812 25.91949196-89.69028063 69.28020231-110.50950802 122.09302806-47.24705601 119.8545473 11.82247099 255.80226336 131.6770183 303.0515735 27.76460598 10.94443651 56.77018011 16.40651041 85.74306885 16.40538426 31.61262831 0 63.18806126-6.5035424 93.054765-19.48019594 57.23793939-24.87013321 101.36622605-70.5425889 124.25261167-128.60220661 9.99426542-25.34916477 15.41463573-51.65977117 16.21940743-78.46067963 0.09242534-1.0211798 0.14765351-2.05250394 0.1476535-3.09735627V266.87596921c22.66772165 22.86722308 49.93300736 40.87989483 80.25168985 52.83198653 24.42153649 9.6279479 49.9972537 15.05508233 76.01593332 16.13374619 0.47790364 0.0202887 0.95242521 0.02930513 1.42582063 0.02930513 18.0295784 0 33.00688971-14.23227603 33.76093964-32.41401796 0.77095658-18.65851758-13.72732141-34.41129371-32.38584079-35.18450618z" /></svg>